<mxfile host="app.diagrams.net" modified="2022-04-01T13:05:41.064Z" agent="5.0 (Windows NT 10.0; Win64; x64) AppleWebKit/537.36 (KHTML, like Gecko) Chrome/98.0.4758.109 Safari/537.36 OPR/84.0.4316.52" etag="GH5ZLdecE22oH5ws6JrU" version="17.4.0" type="github">
  <diagram id="z6F2wqZxbRvPZ40iQPGH" name="Page-1">
    <mxGraphModel dx="885" dy="516" grid="1" gridSize="10" guides="1" tooltips="1" connect="1" arrows="1" fold="1" page="1" pageScale="1" pageWidth="827" pageHeight="1169" math="0" shadow="1">
      <root>
        <mxCell id="0" />
        <mxCell id="1" parent="0" />
        <mxCell id="omifSxM_qa38NBtycrVB-19" value="" style="rounded=0;whiteSpace=wrap;html=1;" vertex="1" parent="1">
          <mxGeometry x="25.4" y="360" width="184.6" height="170" as="geometry" />
        </mxCell>
        <mxCell id="omifSxM_qa38NBtycrVB-29" style="edgeStyle=orthogonalEdgeStyle;rounded=0;orthogonalLoop=1;jettySize=auto;html=1;" edge="1" parent="1" source="omifSxM_qa38NBtycrVB-1" target="omifSxM_qa38NBtycrVB-26">
          <mxGeometry relative="1" as="geometry" />
        </mxCell>
        <mxCell id="omifSxM_qa38NBtycrVB-1" value="Banco Mongos" style="html=1;verticalLabelPosition=bottom;align=center;labelBackgroundColor=#ffffff;verticalAlign=top;strokeWidth=2;strokeColor=#0080F0;shadow=0;dashed=0;shape=mxgraph.ios7.icons.data;" vertex="1" parent="1">
          <mxGeometry x="300" y="261.58000000000004" width="34.4" height="51.6" as="geometry" />
        </mxCell>
        <mxCell id="omifSxM_qa38NBtycrVB-7" style="edgeStyle=orthogonalEdgeStyle;rounded=0;orthogonalLoop=1;jettySize=auto;html=1;entryX=0;entryY=0.531;entryDx=0;entryDy=0;entryPerimeter=0;" edge="1" parent="1" source="omifSxM_qa38NBtycrVB-2" target="omifSxM_qa38NBtycrVB-1">
          <mxGeometry relative="1" as="geometry" />
        </mxCell>
        <mxCell id="omifSxM_qa38NBtycrVB-2" value="Django" style="shape=image;html=1;verticalAlign=top;verticalLabelPosition=bottom;labelBackgroundColor=#ffffff;imageAspect=0;aspect=fixed;image=https://cdn2.iconfinder.com/data/icons/boxicons-logos/24/bxl-django-128.png" vertex="1" parent="1">
          <mxGeometry x="180" y="253.58" width="70" height="70" as="geometry" />
        </mxCell>
        <mxCell id="omifSxM_qa38NBtycrVB-6" style="edgeStyle=orthogonalEdgeStyle;rounded=0;orthogonalLoop=1;jettySize=auto;html=1;" edge="1" parent="1" source="omifSxM_qa38NBtycrVB-5" target="omifSxM_qa38NBtycrVB-2">
          <mxGeometry relative="1" as="geometry" />
        </mxCell>
        <mxCell id="omifSxM_qa38NBtycrVB-32" style="edgeStyle=orthogonalEdgeStyle;rounded=0;orthogonalLoop=1;jettySize=auto;html=1;entryX=0;entryY=0.5;entryDx=0;entryDy=0;" edge="1" parent="1" source="omifSxM_qa38NBtycrVB-5" target="omifSxM_qa38NBtycrVB-30">
          <mxGeometry relative="1" as="geometry">
            <mxPoint x="82.60000000000002" y="160" as="targetPoint" />
            <Array as="points">
              <mxPoint x="83" y="160" />
            </Array>
          </mxGeometry>
        </mxCell>
        <mxCell id="omifSxM_qa38NBtycrVB-5" value="Site" style="aspect=fixed;perimeter=ellipsePerimeter;html=1;align=center;shadow=0;dashed=0;spacingTop=3;image;image=img/lib/active_directory/home_page.svg;" vertex="1" parent="1">
          <mxGeometry x="70" y="262.66" width="57.6" height="51.84" as="geometry" />
        </mxCell>
        <mxCell id="omifSxM_qa38NBtycrVB-24" style="edgeStyle=orthogonalEdgeStyle;rounded=0;orthogonalLoop=1;jettySize=auto;html=1;entryX=0;entryY=0.5;entryDx=0;entryDy=0;" edge="1" parent="1" source="omifSxM_qa38NBtycrVB-8" target="omifSxM_qa38NBtycrVB-21">
          <mxGeometry relative="1" as="geometry" />
        </mxCell>
        <mxCell id="omifSxM_qa38NBtycrVB-8" value="" style="dashed=0;outlineConnect=0;html=1;align=center;labelPosition=center;verticalLabelPosition=bottom;verticalAlign=top;shape=mxgraph.webicons.facebook;fillColor=#6294E4;gradientColor=#1A2665" vertex="1" parent="1">
          <mxGeometry x="41.4" y="400" width="48.6" height="50" as="geometry" />
        </mxCell>
        <mxCell id="omifSxM_qa38NBtycrVB-25" style="edgeStyle=orthogonalEdgeStyle;rounded=0;orthogonalLoop=1;jettySize=auto;html=1;entryX=0;entryY=0.5;entryDx=0;entryDy=0;" edge="1" parent="1" source="omifSxM_qa38NBtycrVB-9" target="omifSxM_qa38NBtycrVB-21">
          <mxGeometry relative="1" as="geometry" />
        </mxCell>
        <mxCell id="omifSxM_qa38NBtycrVB-9" value="" style="shape=image;html=1;verticalAlign=top;verticalLabelPosition=bottom;labelBackgroundColor=#ffffff;imageAspect=0;aspect=fixed;image=https://cdn3.iconfinder.com/data/icons/2018-social-media-logotypes/1000/2018_social_media_popular_app_logo_twitter-128.png" vertex="1" parent="1">
          <mxGeometry x="41.4" y="460" width="53" height="53" as="geometry" />
        </mxCell>
        <mxCell id="omifSxM_qa38NBtycrVB-20" value="Midia Social" style="text;html=1;strokeColor=none;fillColor=none;align=center;verticalAlign=middle;whiteSpace=wrap;rounded=0;" vertex="1" parent="1">
          <mxGeometry x="38" y="360" width="82" height="30" as="geometry" />
        </mxCell>
        <mxCell id="omifSxM_qa38NBtycrVB-35" style="edgeStyle=orthogonalEdgeStyle;rounded=0;orthogonalLoop=1;jettySize=auto;html=1;" edge="1" parent="1" source="omifSxM_qa38NBtycrVB-21" target="omifSxM_qa38NBtycrVB-26">
          <mxGeometry relative="1" as="geometry" />
        </mxCell>
        <mxCell id="omifSxM_qa38NBtycrVB-21" value="Craw" style="shape=image;html=1;verticalAlign=top;verticalLabelPosition=bottom;labelBackgroundColor=#ffffff;imageAspect=0;aspect=fixed;image=https://cdn0.iconfinder.com/data/icons/long-shadow-web-icons/512/python-128.png" vertex="1" parent="1">
          <mxGeometry x="230" y="428" width="59" height="59" as="geometry" />
        </mxCell>
        <mxCell id="omifSxM_qa38NBtycrVB-36" style="edgeStyle=orthogonalEdgeStyle;rounded=0;orthogonalLoop=1;jettySize=auto;html=1;entryX=0.5;entryY=0;entryDx=0;entryDy=0;" edge="1" parent="1" source="omifSxM_qa38NBtycrVB-26" target="omifSxM_qa38NBtycrVB-34">
          <mxGeometry relative="1" as="geometry" />
        </mxCell>
        <mxCell id="omifSxM_qa38NBtycrVB-26" value="&amp;nbsp; &amp;nbsp; &amp;nbsp; &amp;nbsp; &amp;nbsp; Raw" style="sketch=0;outlineConnect=0;fontColor=#232F3E;gradientColor=none;fillColor=#3F8624;strokeColor=none;dashed=0;verticalLabelPosition=bottom;verticalAlign=top;align=center;html=1;fontSize=12;fontStyle=0;aspect=fixed;pointerEvents=1;shape=mxgraph.aws4.bucket_with_objects;" vertex="1" parent="1">
          <mxGeometry x="356" y="350" width="57.69" height="60" as="geometry" />
        </mxCell>
        <mxCell id="omifSxM_qa38NBtycrVB-33" style="edgeStyle=orthogonalEdgeStyle;rounded=0;orthogonalLoop=1;jettySize=auto;html=1;entryX=0.522;entryY=0.07;entryDx=0;entryDy=0;entryPerimeter=0;" edge="1" parent="1" source="omifSxM_qa38NBtycrVB-30" target="omifSxM_qa38NBtycrVB-1">
          <mxGeometry relative="1" as="geometry" />
        </mxCell>
        <mxCell id="omifSxM_qa38NBtycrVB-30" value="" style="strokeColor=#dddddd;shadow=1;strokeWidth=1;rounded=1;absoluteArcSize=1;arcSize=2;" vertex="1" parent="1">
          <mxGeometry x="190" y="140" width="110" height="50" as="geometry" />
        </mxCell>
        <mxCell id="omifSxM_qa38NBtycrVB-31" value="API&#xa;Analytics" style="sketch=0;dashed=0;connectable=0;html=1;fillColor=#5184F3;strokeColor=none;shape=mxgraph.gcp2.hexIcon;prIcon=api_analytics;part=1;labelPosition=right;verticalLabelPosition=middle;align=left;verticalAlign=middle;spacingLeft=5;fontColor=#999999;fontSize=12;" vertex="1" parent="omifSxM_qa38NBtycrVB-30">
          <mxGeometry y="0.5" width="44" height="39" relative="1" as="geometry">
            <mxPoint x="5" y="-19.5" as="offset" />
          </mxGeometry>
        </mxCell>
        <mxCell id="omifSxM_qa38NBtycrVB-38" style="edgeStyle=orthogonalEdgeStyle;rounded=0;orthogonalLoop=1;jettySize=auto;html=1;" edge="1" parent="1" source="omifSxM_qa38NBtycrVB-34" target="omifSxM_qa38NBtycrVB-37">
          <mxGeometry relative="1" as="geometry" />
        </mxCell>
        <mxCell id="omifSxM_qa38NBtycrVB-34" value="" style="shape=image;verticalLabelPosition=bottom;labelBackgroundColor=default;verticalAlign=top;aspect=fixed;imageAspect=0;image=https://blog.sqlizer.io/img/sqlizer-logo.png;" vertex="1" parent="1">
          <mxGeometry x="440" y="460" width="97" height="35.41" as="geometry" />
        </mxCell>
        <mxCell id="omifSxM_qa38NBtycrVB-40" style="edgeStyle=orthogonalEdgeStyle;rounded=0;orthogonalLoop=1;jettySize=auto;html=1;entryX=0.579;entryY=0.949;entryDx=0;entryDy=0;entryPerimeter=0;" edge="1" parent="1" source="omifSxM_qa38NBtycrVB-37" target="omifSxM_qa38NBtycrVB-39">
          <mxGeometry relative="1" as="geometry" />
        </mxCell>
        <mxCell id="omifSxM_qa38NBtycrVB-37" value="&amp;nbsp; &amp;nbsp; &amp;nbsp; &amp;nbsp; &amp;nbsp; Raw" style="sketch=0;outlineConnect=0;fontColor=#232F3E;gradientColor=none;fillColor=#3F8624;strokeColor=none;dashed=0;verticalLabelPosition=bottom;verticalAlign=top;align=center;html=1;fontSize=12;fontStyle=0;aspect=fixed;pointerEvents=1;shape=mxgraph.aws4.bucket_with_objects;" vertex="1" parent="1">
          <mxGeometry x="550" y="350" width="57.69" height="60" as="geometry" />
        </mxCell>
        <mxCell id="omifSxM_qa38NBtycrVB-42" style="edgeStyle=orthogonalEdgeStyle;rounded=0;orthogonalLoop=1;jettySize=auto;html=1;entryX=0;entryY=0.5;entryDx=0;entryDy=0;" edge="1" parent="1" source="omifSxM_qa38NBtycrVB-39" target="omifSxM_qa38NBtycrVB-41">
          <mxGeometry relative="1" as="geometry" />
        </mxCell>
        <mxCell id="omifSxM_qa38NBtycrVB-39" value="" style="shape=image;verticalLabelPosition=bottom;labelBackgroundColor=default;verticalAlign=top;aspect=fixed;imageAspect=0;image=https://upload.wikimedia.org/wikipedia/commons/thumb/b/bb/Apache_Hive_logo.svg/1138px-Apache_Hive_logo.svg.png;" vertex="1" parent="1">
          <mxGeometry x="434.65" y="200" width="107.69" height="96.92" as="geometry" />
        </mxCell>
        <mxCell id="omifSxM_qa38NBtycrVB-41" value="" style="shape=image;html=1;verticalAlign=top;verticalLabelPosition=bottom;labelBackgroundColor=#ffffff;imageAspect=0;aspect=fixed;image=https://cdn0.iconfinder.com/data/icons/medic-outline/32/Statistic-128.png" vertex="1" parent="1">
          <mxGeometry x="620" y="184.46" width="128" height="128" as="geometry" />
        </mxCell>
      </root>
    </mxGraphModel>
  </diagram>
</mxfile>
